<svg xmlns="http://www.w3.org/2000/svg" viewBox="0 0 1530 232" width="144"><g fill="#ff692d"><path d="M184.058 231c-10.37 0-20.66-4.665-29.216-13.305-12.701-12.455-19.747-29.614-19.853-48.302-.066-12.428 3.152-24.298 8.86-33.39a98 98 0 0 0-14.86-1.116h-.993c-5.232 0-10.185.385-14.847 1.103 5.682 9.065 8.913 20.948 8.847 33.389-.092 18.688-7.152 35.835-19.853 48.303-9.191 9.277-20.396 13.983-31.534 13.225-9.748-.651-18.555-5.569-24.793-13.81-10.264-13.133-10.98-32.166-1.92-50.908 6.7-13.85 19.429-28.258 38.248-37.589-6.82-4.719-13.429-7.776-20.647-11.099-11.893-5.489-25.363-11.71-42.156-26.557-21.482-19.1-25.853-54.483-9.152-74.208C19.142 6.116 33.472-.118 48.372.002c15.403.146 29.852 7.07 39.653 19.034 2.08 2.365 23.005 26.849 32.077 62.95.954 3.814-1.417 7.656-5.258 8.427l-3.827.77c-2.98.599-5.867-1.289-6.583-4.253C96.21 53.315 75.88 30.094 75.668 29.855l-.238-.279c-6.808-8.36-16.476-13.026-27.204-13.12-10.079-.079-19.68 3.989-25.534 10.914-10.86 12.84-7.113 38.213 7.535 51.24 14.966 13.238 26.754 18.674 38.144 23.938 10.105 4.665 20.502 9.464 31.865 19.326 8.397-2.193 17.655-3.442 27.76-3.442h.993c10.119 0 19.363 1.249 27.76 3.442 11.337-9.849 21.747-14.647 31.865-19.326 11.39-5.264 23.178-10.7 38.157-23.952 14.648-13.013 18.383-38.387 7.523-51.226-5.788-6.859-15.192-10.913-25.204-10.913h-.331c-10.741.093-20.396 4.758-27.204 13.119l-.238.28c-.212.238-20.542 23.46-28.753 57.06-.729 2.965-3.616 4.839-6.583 4.254l-3.827-.77c-3.841-.772-6.225-4.613-5.258-8.428 9.085-36.1 29.998-60.584 32.077-62.95 9.814-11.95 24.25-18.874 39.653-19.02 14.9-.107 29.23 6.114 38.197 16.734 16.687 19.738 12.317 55.108-9.179 74.208-16.807 14.86-30.276 21.081-42.169 26.571-7.218 3.336-13.84 6.38-20.648 11.098 18.82 9.318 31.561 23.739 38.249 37.589 9.059 18.742 8.344 37.776-1.92 50.908-6.238 8.254-15.045 13.159-24.793 13.81-.768.053-1.55.08-2.318.08zm-23.044-90.491c-6.119 6.473-9.669 17.147-9.602 28.79.039 8.268 2.039 24.019 14.952 36.646l.093.093c5.801 5.875 12.516 8.879 18.833 8.44 5.033-.332 9.483-2.884 12.86-7.377l.106-.133c6.238-7.948 6.278-20.828.093-33.601-6.066-12.534-18.449-25.653-37.322-32.871zm-65.016 0c-18.873 7.218-31.256 20.337-37.322 32.871-6.185 12.773-6.145 25.653.093 33.602l.105.133c3.378 4.492 7.828 7.044 12.86 7.377 6.331.425 13.033-2.566 18.834-8.441l.093-.093c12.899-12.627 14.899-28.378 14.952-36.645.066-11.697-3.523-22.41-9.602-28.79z"/></g><g fill="#2A2926" transform="translate(257 0)"><path d="M810.278 213.17a5.97 5.97 0 0 0-6.75-3.958c-.424.08-.848.159-1.258.239-10.496 1.945-16.426-1.311-18.742-10.602-.701-2.806-.9-5.798-.913-8.71-.08-19.933.053-39.879-.093-59.826-.04-5.533-.371-11.118-1.271-16.571-3.189-19.312-13.871-32.323-33.036-37.63-15.566-4.315-31.277-4.25-46.962-.675-11.224 2.554-21.415 7.134-29.119 16.108-6.988 8.14-8.444 21.244-3.468 29.926 1.721 3.005 3.693 4.236 7.545 3.826 1.416-.146 10.761-1.456 16.373-2.131a2.966 2.966 0 0 0 2.594-3.164c-.331-4.606-.768-8.961-.635-13.289.264-8.206 3.732-14.639 12.163-17.087 3.362-.98 6.936-1.576 10.43-1.681 12.919-.397 23.627 3.732 30.43 15.525a42 42 0 0 1 3.838 8.868c3.72 12.151-3.203 24.977-15.353 28.709 0 0-.119.027-.172.053-18.425 5.652-36.889 11.171-55.221 17.114-7.161 2.317-13.342 6.539-17.723 12.905-5.466 7.955-6.115 16.85-5.202 26.141 1.496 15.195 12.191 28.153 27.968 31.687 19.51 4.368 37.895 1.536 54.109-10.933 2.475-1.906 4.857-3.904 7.24-5.956 3.746-3.229 9.516-1.906 11.541 2.608a1 1 0 0 0 .04.092c5.361 11.846 13.395 16.638 26.101 15.817 9.491-.609 16.982-5.029 23.825-10.906a5.99 5.99 0 0 0 1.761-6.446l-.027-.079zm-56.663-22.342c0 .873-.583 2.078-1.284 2.541-6.777 4.513-13.289 9.623-20.556 13.157-9.927 4.817-20.568 5.228-31.011 1.005-7.558-3.057-11.595-9.066-12.601-16.942-.913-7.094-1.006-14.44 5.387-19.271 3.825-2.886 8.418-5.056 12.985-6.578 14.413-4.805 28.973-9.16 43.48-13.66h.039c1.8-.569 3.627.781 3.627 2.661 0 12.6.013 24.843-.053 37.087zM411.254 77.58c-19.867-7.014-39.986-6.577-59.654.861-17.988 6.804-31.701 19.007-40.952 36.002-7.955 14.613-10.51 30.324-9.424 46.67 1.416 21.31 9.675 39.483 26.418 53.182 12.416 10.152 27.717 15.367 43.573 16.73 8.829.755 20.384.093 29-1.906 20.86-4.831 34.798-16.492 46.525-34.678 12.349-19.139 15.247-40.184 11.078-62.037-5.096-26.789-20.608-45.65-46.577-54.836zm17.816 77.63c-.027 14.083-1.456 25.598-6.989 36.293-7.068 13.659-18.239 20.807-33.646 21.402-22.408.874-38.146-9.741-47.993-29.053-10.682-20.965-12.323-43.122-4.646-65.412 7.081-20.568 22.964-29.728 44.234-27.345 22.687 2.528 35.764 16.783 43.613 36.902 1.668 4.262 2.872 8.762 3.706 13.262.993 5.334 1.35 10.774 1.721 13.951M1081.13 185.665h-.02c-.88-.357-1.72-.728-2.49-1.218-2.14-1.337-3.36-.834-4.91 1.033-4.52 5.466-10.17 9.609-16.4 12.984-13.23 7.174-27.41 8.67-42.03 6.512-20.029-2.965-33.199-14.334-39.605-33.447-4.156-12.442-4.699-25.241-2.912-38.146 1.377-10.02 4.712-19.364 11.357-27.147 12.746-14.957 29.26-18.875 47.95-15.526 7.91 1.403 13.56 5.943 16.18 13.686.92 2.727 1.55 5.652 1.69 8.524 0 .053.02.106.02.146.41 8.232 6.83 14.89 15.04 15.539.14 0 .27.026.4.039 5.9.517 9.57-2.541 12.39-6.922 4.5-7.015 4.01-14.586 1.23-22.011-4.39-11.807-13.7-18.557-25.09-22.422-19.45-6.578-39.01-5.85-58.216.953-22.58 7.994-38 23.705-45.955 46.14-7.822 22.091-7.69 44.261 1.761 66.101 6.618 15.301 17.63 26.247 32.467 33.407 12.191 5.877 25.193 7.254 38.593 6.737 17.82-.688 33.64-5.89 46.42-18.834 6.18-6.248 10.97-13.302 14.06-21.721.65-1.76-.2-3.719-1.93-4.407M934.749 74.232c-10.232-3.217-19.894-1.96-28.603 4.262-8.948 6.393-14.692 15.605-20.595 24.619-2.039 3.11-3.958 6.3-5.904 9.49-.225.37-.635.595-1.059.556-.172-.014-.304-.08-.476-.199a1.21 1.21 0 0 1-.503-.993l1.152-35.71a3.53 3.53 0 0 0-3.349-3.64c-4.884-.265-8.286.609-17.617 3.812-9.12 3.123-18.239 6.247-27.399 9.37a4.97 4.97 0 0 0-3.282 3.813v.026c-.569 3.084.768 4.686 3.626 5.877 5.11 2.118 9.98 4.831 15.116 6.909 2.276.927 2.846 2.092 2.832 4.395-.079 24.129.027 87.701-.158 95.351-.12 4.977-2.528 8.114-7.333 10.51-4.421 2.197-12.574 3.071-13.832 3.216-2.263.265-3.97 2.038-3.97 4.143v3.177c0 2.303 2.025 4.169 4.526 4.169h74.016c2.501 0 4.526-1.866 4.526-4.169v-3.177c0-2.105-1.707-3.878-3.97-4.143-1.125-.132-10.92-1.588-14.613-2.449-7.399-1.72-10.324-5.691-10.337-13.249-.04-22.66-.04-45.32.053-67.98 0-1.323.582-2.912 1.442-3.891 2.833-3.23 5.877-6.274 8.895-9.331 10.02-10.192 22.17-15.407 36.492-15.5 3.031-.026 6.075-.013 9.159 0 2.965 0 5.374-2.409 5.347-5.373-.04-6.142-.106-11.926.106-17.697.132-3.468-1.231-5.202-4.288-6.168zM640.395 215.671c-2.581-.556-5.109-1.099-7.637-1.668-9.451-2.104-12.072-5.188-12.522-14.784-.052-1.152-.039-2.303-.039-3.468 0-23.931.053-47.438-.04-71.355-.026-5.334-.251-10.721-.966-16.002-1.946-14.322-9.12-24.99-22.673-30.84-11.211-4.844-22.938-5.705-34.824-3.733-14.282 2.37-26.657 9.08-37.961 17.856-1.866 1.456-3.64 3.044-5.533 4.791-.992.913-2.356.768-3.216.026.225-6.723.437-13.447.649-20.145.066-1.919-1.43-3.534-3.349-3.64-4.871-.264-8.286.61-17.617 3.812-9.12 3.124-18.239 6.248-27.398 9.371a4.97 4.97 0 0 0-3.283 3.813v.026c-.569 3.084.754 4.686 3.613 5.877 4.937 2.038 9.649 4.646 14.586 6.697 0 0 3.111.86 3.031 5.533-.569 29.9-.317 93.697-.595 95.881-.622 4.99-3.786 7.743-8.365 9.133a97 97 0 0 1-6.976 1.866c-7.253 1.655-7.16 1.628-7.226 9.08-.027 2.634.569 3.6 3.467 3.587 22.674-.133 45.36-.066 68.033-.066a3.15 3.15 0 0 0 3.15-3.15v-5.388a3.155 3.155 0 0 0-2.488-3.083c-2.66-.57-5.162-1.112-7.664-1.655-9.755-2.118-12.706-5.599-12.733-15.618-.066-27.386-.053-54.36.067-81.759 0-1.522.926-3.719 2.117-4.421 6.645-3.918 13.236-8.127 20.357-11.012 11.688-4.752 23.918-6.975 36.558-3.878 9.239 2.263 15.764 7.425 17.246 17.22.861 5.665 1.192 11.449 1.218 17.193.132 22.568.079 44.711.04 67.265-.013 8.617-2.502 11.913-10.668 14.388-1.8.543-3.64.953-5.48 1.35-7.095 1.562-6.949 1.549-7.108 8.947-.066 3.005.98 3.667 3.799 3.654 22.567-.106 45.148-.053 67.715-.067h.027c1.76 0 3.176-1.456 3.176-3.216v-5.255a3.22 3.22 0 0 0-2.541-3.15zM298.762 215.553c-1.364-.172-6.049-.675-7.002-.834-6.128-.993-12.217-2.515-15.116-8.723-1.601-3.441-2.488-7.346-3.018-11.131-2.117-15.142-16.796-127.912-18.702-143.61-.768-6.314-2.197-12.574-.926-19.047 1.482-7.557 5.254-12.653 13.169-14.03 2.608-.45 9.345-1.456 9.345-1.456 2.502 0 4.527-1.985 4.527-4.434V8.913c0-2.237-1.708-4.593-3.971-4.87-.86-.107-3.587 0-4.09 0h-45.241c-2.845 0-4.751 1.813-5.691 4.658s-63.625 158.461-67.742 168.64c-.436 1.072-1.945 1.085-2.409.026v-.026C134.49 136.613 85.755 24.373 80.117 8.529c-.913-2.58-2.449-4.474-5.175-4.474H27.04c-.239 0-3.018.04-4.381.199-2.264.265-3.971 2.37-3.971 4.527v3.256c0 2.356 1.985 4.037 4.526 4.275 0 0 4.95.635 5.837.794 5.48.953 11.119 1.787 14.745 6.724 3.68 5.016 4.289 10.92 3.68 16.81-1.099 10.72-17.392 134.808-20.251 156.078-1.602 11.965-6.816 16.81-18.822 18.094q-2.044.218-4.09.476a4.53 4.53 0 0 0-3.97 4.487v3.455a4.524 4.524 0 0 0 4.526 4.526h67.504a4.524 4.524 0 0 0 4.526-4.526v-3.309a4.574 4.574 0 0 0-3.785-4.514s-11.41-1.787-16.942-3.256c-5.162-1.363-8.431-5.149-9.265-10.443-.57-3.587-.913-7.346-.503-10.933C48.76 170.378 59.283 86.833 61.997 65.444c.397-3.15.847-6.287 1.337-9.795.158-1.165 1.747-1.376 2.223-.304a1 1 0 0 1 .067.159C89.5 110.737 113.485 165.93 137.11 221.27c2.303 5.413 4.871 7.597 10.655 6.869 2.541-.318 3.719-.953 4.672-3.309 22.885-56.067 45.849-112.108 68.801-168.15v-.026c.463-1.085 2.064-.9 2.236.265.12.728.212 1.403.305 2.078 2.594 19.721 14.48 108.799 17.246 133.657 1.509 13.527-3.719 18.795-14.586 20.912-3.216.622-12.058 1.853-13.222 1.999-2.264.278-3.971 2.157-3.971 4.394v3.375c0 2.449 2.025 4.435 4.527 4.435h84.432c2.501 0 4.526-1.986 4.526-4.435v-3.375c0-2.237-1.707-4.129-3.97-4.394zM1268.38 215.883h-.02c-.33-.119-3.43-.768-4.62-1.046-12.13-2.779-14.41-5.651-14.41-18.12-.01-24.658.05-49.145-.04-73.803-.03-5.017-.25-10.086-.98-15.036-1.93-13.117-8.21-23.428-20.44-29.424-13.07-6.393-26.83-7.187-40.78-3.93-12.66 2.95-23.78 9.238-33.95 17.206-2.29 1.787-4.44 3.746-6.54 5.638-1.09.993-2.84.212-2.84-1.257V7.946c0-5.109-4.81-9-9.76-7.69l-.39.12c-12.52 3.944-24.89 8.364-37.36 12.68a4.955 4.955 0 0 0-3.32 4.672c0 2.104 1.3 3.917 3.25 4.632 4.87 1.8 9.67 3.614 14.55 5.149 2.72.86 3.66 1.999 3.66 4.99-.12 56.663 0 168.533-.2 170.188-.56 4.672-2.45 8.524-7.32 9.98-3.53 1.059-11.4 3.176-11.71 3.322-2 .463-3.45 2.091-3.45 4.037v3.177c0 2.303 2.03 4.169 4.53 4.169h65.39c2.5 0 4.52-1.866 4.52-4.169v-3.177c0-2.105-1.7-3.878-3.97-4.143-.06 0-5.83-1.363-8.15-2.038-8.74-2.581-10.87-5.4-10.89-14.388-.04-27.808-.04-55.445.06-83.254.02-1.284.89-3.137 1.94-3.746 6.48-3.812 12.91-7.835 19.77-10.84 12.04-5.255 24.68-7.36 37.75-4.182 6.33 1.535 11.75 4.513 14.8 10.641 2.58 5.189 3.23 10.788 3.23 16.505v64.671c0 4.09.08 8.193-.08 12.27-.27 6.247-2.8 9.742-8.71 11.595-3.11.966-10.14 2.713-10.46 2.846-2.04.423-3.53 2.091-3.53 4.05v3.176c0 2.303 2.02 4.17 4.52 4.17h65.39c2.5 0 4.53-1.867 4.53-4.17v-3.176c0-2.105-1.71-3.878-3.97-4.143z"/></g></svg>
